<?xml version="1.0" encoding="iso-8859-1"?>
<!-- Generator: Adobe Illustrator 19.0.0, SVG Export Plug-In . SVG Version: 6.00 Build 0)  -->
<svg version="1.1" id="Capa_1" xmlns="http://www.w3.org/2000/svg" xmlns:xlink="http://www.w3.org/1999/xlink" x="0px" y="0px"
	 viewBox="0 0 470 470" style="enable-background:new 0 0 470 470;" xml:space="preserve">
<g>
	<path style="fill:#E9B264;" d="M217.292,152.579c0,0.001,15,0.001,15,0.001c0-4.144,3.358-7.501,7.5-7.501h30.414
		c4.136,0,7.5-3.364,7.5-7.5s-3.364-7.5-7.5-7.5h-70.414c-4.136,0-7.5,3.364-7.5,7.5s3.364,7.5,7.5,7.5h10
		C213.935,145.079,217.292,148.437,217.292,152.579z"/>
	<path style="fill:#F59B45;" d="M209.792,160.079h-10c-4.136,0-7.5,3.364-7.5,7.5s3.364,7.5,7.5,7.5h70.414
		c4.136,0,7.5-3.364,7.5-7.5s-3.364-7.5-7.5-7.5h-30.414c-4.142,0-7.499-3.357-7.5-7.499h-15
		C217.292,156.721,213.934,160.079,209.792,160.079z"/>
	<path style="fill:#E9B264;" d="M199.792,205.079h70.414c4.136,0,7.5-3.364,7.5-7.5s-3.364-7.5-7.5-7.5h-70.414
		c-4.136,0-7.5,3.364-7.5,7.5S195.657,205.079,199.792,205.079z"/>
	<path style="fill:#F59B45;" d="M265.951,220.079h-26.319c3.019,4.929,6.027,9.935,9.003,14.993
		c3.616-2.091,8.202-0.864,10.274,2.722c19.213,33.24,51.444,93.92,51.444,126.854C310.354,406.197,276.55,440,235,440
		s-75.354-33.803-75.354-75.354c0-37.319,41.173-110.185,61.949-144.568h-17.548c-38.323,64.226-59.401,115.477-59.401,144.568
		C144.646,414.468,185.179,455,235,455s90.354-40.532,90.354-90.354C325.354,335.557,304.275,284.306,265.951,220.079z"/>
	<rect x="227.5" y="7.5" style="fill:#F59B45;" width="15" height="107.579"/>
	<path style="fill:#34150C;" d="M281.563,216.99c6.66-3.912,11.143-11.146,11.143-19.412c0-5.758-2.177-11.016-5.747-15
		c3.571-3.984,5.747-9.242,5.747-15s-2.177-11.016-5.747-15c3.571-3.984,5.747-9.242,5.747-15c0-12.407-10.093-22.5-22.5-22.5H257.5
		V7.5c0-4.142-3.358-7.5-7.5-7.5s-7.5,3.358-7.5,7.5v107.579h-15V7.5c0-4.142-3.358-7.5-7.5-7.5s-7.5,3.358-7.5,7.5v107.579h-12.708
		c-12.407,0-22.5,10.093-22.5,22.5c0,5.758,2.177,11.016,5.747,15c-3.571,3.984-5.747,9.242-5.747,15s2.177,11.016,5.747,15
		c-3.571,3.984-5.747,9.242-5.747,15c0,8.266,4.483,15.5,11.143,19.412c-27.912,47.338-58.789,108.545-58.789,147.656
		C129.646,422.739,176.908,470,235,470s105.354-47.261,105.354-105.354C340.354,325.537,309.476,264.33,281.563,216.99z M235,455
		c-49.821,0-90.354-40.532-90.354-90.354c0-29.091,21.078-80.342,59.401-144.568h17.548
		c-20.776,34.383-61.949,107.249-61.949,144.568C159.646,406.197,193.45,440,235,440s75.354-33.803,75.354-75.354
		c0-32.933-32.231-93.614-51.444-126.854c-2.073-3.586-6.659-4.813-10.247-2.74c-3.591,2.099-4.807,6.67-2.74,10.247
		c31.414,54.349,49.431,97.849,49.431,119.347C295.354,397.925,268.279,425,235,425s-60.354-27.075-60.354-60.354
		c0-24.986,24.667-80.172,64.529-144.568h0.457h26.319c38.324,64.227,59.403,115.479,59.403,144.568
		C325.354,414.468,284.821,455,235,455z M192.292,137.579c0-4.136,3.364-7.5,7.5-7.5h70.414c4.136,0,7.5,3.364,7.5,7.5
		s-3.364,7.5-7.5,7.5h-30.414c-4.142,0-7.5,3.358-7.5,7.5c0.001,4.143,3.358,7.5,7.5,7.5h30.414c4.136,0,7.5,3.364,7.5,7.5
		s-3.364,7.5-7.5,7.5h-70.414c-4.136,0-7.5-3.364-7.5-7.5s3.364-7.5,7.5-7.5h10c4.142,0,7.499-3.357,7.5-7.499
		c0-4.144-3.358-7.501-7.5-7.501h-10C195.657,145.079,192.292,141.714,192.292,137.579z M199.792,190.079h70.414
		c4.136,0,7.5,3.364,7.5,7.5s-3.364,7.5-7.5,7.5h-70.414c-4.136,0-7.5-3.364-7.5-7.5S195.657,190.079,199.792,190.079z"/>
</g>
<g>
</g>
<g>
</g>
<g>
</g>
<g>
</g>
<g>
</g>
<g>
</g>
<g>
</g>
<g>
</g>
<g>
</g>
<g>
</g>
<g>
</g>
<g>
</g>
<g>
</g>
<g>
</g>
<g>
</g>
</svg>
